<svg xmlns="http://www.w3.org/2000/svg" width="148" height="148" viewBox="0 0 148 148">
    <g fill="none" fill-rule="evenodd">
        <g>
            <g>
                <g>
                    <path d="M0 0H148V148H0z" transform="translate(-110.000000, -282.000000) translate(36.000000, 282.000000) translate(74.000000, 0.000000)"/>
                    <path fill="#FF6E6E" fill-rule="nonzero" d="M27.081 11.205c9.974 2.663 18.84 7.407 27.362 12.949.858.558 2.219.736 3.252.555 7.434-1.307 14.92-1.536 22.422-1.179 3.031.144 6.03.903 9.063 1.126 1.268.093 2.795-.146 3.845-.808 7.815-4.937 15.95-9.186 24.735-12.09.84-.278 1.705-.479 2.667-.685 1.488-.319 3.103.609 3.65 2.065.725 1.935 1.462 3.907 1.826 5.948.106.592.214 1.186.323 1.78l.327 1.786c.87 4.767 1.685 9.573 1.59 14.336-.081 3.979 1.12 6.562 3.26 9.57 5.28 7.414 7.118 15.94 6.742 25.002-.491 11.851-2.882 23.047-10.561 32.55-4.405 3.414-10.843 8.635-17.9 11.664-.264.114-.53.225-.796.334l-.006.066c-.143 1.91.13 3.985.488 6.033l.122.682.062.34.127.675c.802 4.262 1.575 8.168-.799 9.916-3.81 2.807-18.542 5.47-21.42 0-.622-4.744-.522-9.169.081-13.203-1.497.084-2.963.128-4.387.136-8.18.05-16.366.197-24.537-.083.504 4.019.538 8.427-.081 13.15-2.878 5.47-16.61 2.807-20.42 0-2.374-1.748-1.601-5.654-.799-9.916l.127-.675.062-.34.122-.682c.307-1.754.551-3.529.525-5.203-2.049-.753-4.06-1.642-6.03-2.686-9.973-5.287-16.597-13.412-20.027-24.24-2.24-7.065-3.213-14.269-3.087-21.66.146-8.643 2.537-16.525 7.848-23.382 1.583-2.044 2.383-3.833 2.16-6.745-.354-4.632.363-9.41 1.11-14.048.626-3.886 1.903-7.672 2.98-11.477.115-.407.324-.786.556-1.152.378-.597 1.919-.81 3.416-.41zm57.35 53.265c-9.873-.074-19.742-.568-29.616-.686-3.914-.047-7.833.444-11.75.695-3.55.227-6.553 1.683-9.246 3.978-10.562 9.002-8.928 25.497-2.536 34.164 1.313 1.78 2.813 3.247 4.458 4.467-.916-2.454-1.741-4.654-1.741-6.66 2.176-4.207 5.696-7.724 12.353-3.563 3.984 2.49 8.453 8.457 10.867 16.905 5.356.607 10.759.727 16.2.49 5.248.23 10.484.144 15.685-.395 2.695-8.5 7.543-14.5 11.542-17 6.657-4.16 10.177-.644 12.353 3.563 0 2.052-.863 4.307-1.804 6.83.348-.261.69-.537 1.024-.828 7.763-6.748 9.73-15.564 8.24-25.249-1.002-6.514-4.314-12.075-10.468-14.818-3.691-1.645-7.968-2.398-12.035-2.645-4.476-.272-9.017.784-13.526.752zM73.373 88.052c7.953 0 5.583 4.934 5.583 10.866 0 5.933 3.385 10.618-5.583 10.618-6.288 0-6.262-2.303-5.685-5.725l.059-.34c.239-1.374.534-2.916.534-4.553 0-5.932-2.862-10.866 5.092-10.866zm30.376-6.615c2.173 5.975-.16 12.31-5.212 14.15-5.051 1.84-10.908-1.512-13.08-7.486-2.174-5.975.16-12.31 5.211-14.15 5.052-1.84 10.909 1.512 13.081 7.486zM56.255 73.76c5.051 1.84 7.385 8.175 5.212 14.15-2.173 5.974-8.03 9.325-13.081 7.485-5.052-1.84-7.385-8.175-5.212-14.15 2.172-5.974 8.03-9.325 13.08-7.485z" transform="translate(-110.000000, -282.000000) translate(36.000000, 282.000000) translate(74.000000, 0.000000)"/>
                </g>
            </g>
        </g>
    </g>
</svg>
