<svg xmlns="http://www.w3.org/2000/svg" width="148" height="148" viewBox="0 0 148 148">
    <g fill="none" fill-rule="evenodd">
        <g>
            <g>
                <g>
                    <path d="M0 0H148V148H0z" transform="translate(-310 -400) translate(208 400) translate(102)"/>
                    <path fill="#D8D8D8" fill-rule="nonzero" d="M34.838 1.172C43.2 3.403 50.634 7.377 57.779 12.02c.72.467 1.86.617 2.727.465 6.233-1.095 12.51-1.287 18.8-.988 2.542.121 5.057.757 7.6.943 1.062.078 2.343-.122 3.223-.677 6.552-4.136 13.373-7.695 20.74-10.13.703-.232 1.429-.4 2.236-.573 1.247-.267 2.601.51 3.06 1.73.608 1.622 1.226 3.274 1.531 4.983.886 4.967 1.977 10.011 1.878 15-.068 3.333.939 5.498 2.734 8.018 4.427 6.212 5.968 13.355 5.652 20.948-.411 9.929-2.416 19.309-8.855 27.272-3.441 4.255-7.65 7.314-12.444 9.488 1.544.173 2.878 1.679 2.878 4.404 0 13.157-11.133 19.285-17.977 16.758-3.667-1.354-4.966-2.329-5.877-2.942l-.177-.118c-.694-.452-1.222-.674-2.599-.674v28.796c0 6.25 5.287 8.157 5.287 10.465 0 3.98-7.55-.376-10.014-2.858-3.755-3.775-3.103-11.774-3.013-18.1.026-1.841.042-4.342.05-6.937l.003-.71.004-1.423.001-.709.002-1.398v-.684l.001-.338v-1.31l.001-.317v-1.21-.287l-.001-1.57v-.877l-.001-.195v-.522l-.001-.152-.001-.58v-.26l-2.491.054s.226 6.177.238 13.368v.943c-.008 8.217-.315 17.441-1.557 20.212-3.088 6.824-12.398 9.179-12.398 6.062 0-2.09 2.303-1.422 3.574-6.116.488-1.796.682-8.812.748-15.987l.008-.957c.013-1.595.019-3.187.021-4.72v-2.25c-.006-5.549-.058-9.847-.058-9.847s-2.986 1.775-2.986 7.352l-.001.48c-.006 3.34-.062 15.466-.068 20.246v.738c0 5.458-7.745 8.56-11.467 8.56-1.883 0-4.227-.094-4.227-1.096 0-2.52 7.08-3.994 7.08-9.245v-.675c-.002-1.435-.011-3.35-.023-5.347l-.004-.668-.004-.67-.004-.67-.005-.666c-.023-3.536-.05-6.764-.055-7.438v-.096l-.001-.032s-3.57.603-8.667.603c-12.84 0-16.901-8.198-18.832-12.79-2.514-5.98-5.776-8.774-9.239-11.022-2.13-1.384-2.619-3.008-.159-3.469 6.641-1.254 10.394 3.36 13.88 7.893l.402.522c2.336 3.04 4.596 5.94 7.581 6.884 5.418 1.705 12.384.964 15.847-1.277.458-4.597 3.767-8.564 6.523-10.66-1.863-.178-2.853-.34-3.146-.484-5.784-.66-11.407-2.136-16.67-4.923-8.362-4.43-13.916-11.237-16.792-20.309-1.878-5.92-2.694-11.955-2.589-18.148.123-7.241 2.128-13.845 6.58-19.59 1.328-1.713 1.999-3.212 1.812-5.651-.297-3.881.305-7.885.93-11.77.526-3.257 1.596-6.429 2.5-9.617.096-.34.271-.658.465-.964.318-.501 1.61-.678 2.865-.343zm67.424 89.03c-3.468 1.136-6.992 1.847-10.557 2.262-.375.13-1.297.277-2.883.44 1.954 1.231 5.764 8.325 8.787 7 3.355-1.472 3.933-7.847 6.321-10.295l-.016.018c-.544.201-1.095.393-1.652.576zM82.923 45.8c-8.277-.062-16.553-.476-24.832-.575-3.281-.039-6.567.372-9.851.583-2.976.19-5.495 1.41-7.753 3.333-8.855 7.542-7.486 21.362-2.126 28.623 3.367 4.563 8.2 6.666 13.492 7.916 7.175 1.696 14.464 2.157 21.839 1.836 7.46.327 14.896-.109 22.2-1.861 3.722-.894 7.358-2.116 10.332-4.7 6.508-5.653 8.157-13.04 6.908-21.154-.84-5.457-3.617-10.117-8.777-12.415-3.095-1.378-6.68-2.009-10.091-2.216-3.753-.228-7.56.657-11.34.63zM73.84 72.226c2.458 0 4.451 2.536 4.451 5.665 0 3.13-1.993 5.666-4.451 5.666-2.459 0-4.452-2.536-4.452-5.666 0-3.129 1.993-5.665 4.452-5.665zm19.29-17.065c4.507 0 8.161 4.319 8.161 9.645 0 5.327-3.654 9.646-8.161 9.646s-8.161-4.319-8.161-9.646c0-5.326 3.654-9.645 8.161-9.645zm-38.58 0c4.507 0 8.16 4.319 8.16 9.645 0 5.327-3.653 9.646-8.16 9.646-4.508 0-8.162-4.319-8.162-9.646 0-5.326 3.654-9.645 8.161-9.645z" transform="translate(-310 -400) translate(208 400) translate(102)"/>
                </g>
            </g>
        </g>
    </g>
</svg>
